<?xml version="1.0" standalone="no"?>
<!DOCTYPE svg PUBLIC "-//W3C//DTD SVG 20010904//EN"
 "http://www.w3.org/TR/2001/REC-SVG-20010904/DTD/svg10.dtd">
<svg version="1.0" xmlns="http://www.w3.org/2000/svg"
 width="733.000000pt" height="340.000000pt" viewBox="0 0 733.000000 340.000000"
 preserveAspectRatio="xMidYMid meet">

<g transform="translate(0.000000,340.000000) scale(0.100000,-0.100000)"
fill="#000000" stroke="none">
<path d="M1050 1870 l0 -760 2650 0 2650 0 0 760 0 760 -2650 0 -2650 0 0
-760z m5250 0 l0 -720 -2600 0 -2600 0 0 720 0 720 2600 0 2600 0 0 -720z"/>
<path d="M1200 1870 l0 -620 2500 0 2500 0 0 620 0 620 -2500 0 -2500 0 0
-620z m4786 449 c10 -11 16 -37 17 -80 l2 -64 -147 -5 c-147 -6 -186 -16 -161
-41 5 -5 64 -17 129 -26 65 -8 134 -21 151 -28 41 -17 73 -69 73 -117 0 -92
-24 -101 -267 -106 l-193 -4 0 65 0 65 149 4 c82 1 153 6 157 11 18 17 -20 29
-138 41 -68 7 -129 16 -135 19 -22 13 -43 77 -43 127 0 123 70 161 287 157 78
-2 107 -6 119 -18z m-2055 -9 c62 -17 64 -24 64 -214 0 -252 1 -251 -255 -251
-121 0 -182 4 -197 12 -13 8 -29 37 -44 80 -19 58 -21 80 -16 178 5 109 21
174 47 190 39 24 317 27 401 5z m1322 -7 c8 -16 31 -79 53 -142 l39 -114 3
129 c1 71 7 133 12 138 4 4 34 5 64 2 l56 -7 0 -238 0 -238 -46 -7 c-110 -15
-102 -20 -166 122 -32 70 -65 145 -75 167 -20 49 -21 47 -36 -131 l-12 -139
-55 -3 c-30 -1 -60 1 -67 6 -9 5 -14 69 -18 217 -3 116 -8 222 -10 238 l-4 27
124 0 124 0 14 -27z m-3564 11 l31 -6 0 -73 0 -73 -54 -6 -55 -7 -5 -52 c-3
-29 -8 -97 -10 -151 -4 -64 -10 -102 -18 -108 -7 -4 -34 -8 -59 -8 l-47 0 -4
145 c-4 163 -4 165 -75 165 l-43 0 0 44 c0 24 -3 64 -6 90 l-7 46 160 0 c88 0
175 -3 192 -6z m470 -18 c8 -9 14 -81 17 -202 3 -104 7 -204 9 -221 l4 -33
-70 0 -69 0 0 80 0 80 -61 0 -62 0 6 -85 6 -85 -75 0 -74 0 2 228 3 227 51 3
51 3 7 -38 c3 -21 6 -56 6 -78 0 -58 9 -67 66 -63 l49 3 9 98 9 97 52 0 c33 0
57 -5 64 -14z m459 2 c7 -7 12 -26 12 -44 l0 -32 -110 -7 c-106 -7 -140 -18
-140 -45 0 -5 38 -6 85 -3 l85 6 0 -65 0 -65 -70 -12 c-38 -7 -72 -17 -75 -21
-3 -5 -1 -20 5 -35 l10 -27 83 7 c96 8 103 4 113 -69 l7 -46 -177 0 -176 0 0
235 0 235 168 0 c117 0 172 -4 180 -12z m2312 -32 l0 -43 -102 -7 c-125 -9
-138 -12 -138 -37 0 -17 5 -18 76 -12 88 7 94 3 94 -69 0 -46 -1 -47 -37 -58
-21 -5 -55 -13 -75 -16 -39 -7 -42 -12 -32 -52 6 -23 8 -23 99 -16 l93 7 6
-32 c3 -17 8 -44 12 -60 l5 -29 -176 -7 c-97 -4 -178 -5 -180 -3 -2 2 -1 111
2 241 l6 237 174 0 173 0 0 -44z m-1750 24 c63 -6 130 -16 148 -22 50 -15 72
-69 72 -181 0 -109 -16 -152 -63 -172 -52 -22 -338 -78 -347 -69 -11 11 -45
418 -37 439 8 18 62 19 227 5z m1314 -21 c3 -17 6 -51 6 -75 0 -40 -4 -47 -48
-81 -26 -21 -80 -60 -119 -87 -40 -27 -70 -53 -67 -58 3 -4 54 -8 115 -8 l109
0 0 -45 c0 -58 -5 -60 -186 -74 -193 -15 -212 -15 -217 7 -24 86 -23 89 55
166 40 39 104 100 141 134 l69 63 -139 -2 -138 -1 -3 46 -3 46 209 0 210 0 6
-31z m-2804 -599 l0 -51 34 6 c76 15 99 -16 89 -120 -7 -74 -17 -93 -53 -97
-25 -3 -25 -2 -25 77 0 73 -2 80 -20 80 -23 0 -43 -48 -44 -102 -1 -26 -7 -36
-31 -48 -16 -8 -34 -15 -40 -15 -13 0 -13 76 1 198 12 102 22 122 66 122 21 0
23 -4 23 -50z m-110 20 c0 -29 -32 -70 -55 -70 -28 0 -31 -9 -41 -113 -6 -72
-8 -79 -35 -92 -51 -27 -52 -24 -47 95 l6 110 -29 0 c-24 0 -29 4 -29 24 0 14
5 28 12 32 35 22 218 33 218 14z m1306 -45 c10 -30 20 -55 23 -55 3 0 18 23
33 50 29 52 72 76 88 50 10 -16 29 -152 33 -225 2 -45 0 -50 -25 -59 -15 -5
-31 -6 -35 -2 -4 4 -12 36 -18 73 l-11 65 -34 -53 c-19 -29 -40 -54 -47 -57
-7 -2 -17 14 -24 37 -15 51 -25 52 -34 4 -10 -56 -23 -75 -48 -71 -31 4 -32
35 -7 147 26 114 44 151 70 151 14 0 23 -13 36 -55z m1454 30 c26 -23 25 -65
0 -98 -27 -34 -25 -51 10 -102 l31 -44 -37 -16 c-20 -8 -40 -15 -44 -15 -4 0
-17 20 -29 44 -32 70 -42 68 -53 -8 -3 -20 -53 -40 -71 -29 -6 3 -7 48 -2 114
6 96 5 109 -9 109 -33 0 -8 46 34 64 31 12 150 -1 170 -19z m1260 -85 c21 -58
41 -119 44 -137 7 -29 5 -32 -28 -43 -38 -12 -56 -7 -56 15 0 33 -74 34 -96 0
-20 -31 -38 -32 -58 -3 -23 33 -20 79 8 105 12 12 33 48 45 80 27 72 48 95 80
91 21 -3 29 -16 61 -108z m301 81 c16 -16 29 -39 29 -51 0 -54 -61 -120 -112
-120 -29 0 -32 -3 -42 -51 -5 -23 -40 -49 -66 -49 -6 0 -10 46 -10 108 0 65
-4 112 -11 119 -15 15 -3 48 24 61 12 6 53 11 90 11 63 1 71 -1 98 -28z m154
19 c8 -13 -14 -263 -24 -273 -4 -4 -23 -10 -42 -13 l-34 -6 7 118 c3 64 9 128
13 141 8 32 66 56 80 33z m-3775 -36 l23 -35 29 35 c19 23 38 36 54 36 13 0
24 -4 24 -9 0 -4 -18 -46 -39 -92 -21 -46 -42 -99 -46 -116 -7 -34 -55 -78
-77 -71 -7 3 -11 30 -10 79 2 59 -3 85 -23 129 -22 50 -22 56 -8 68 28 21 50
14 73 -24z m2942 -1 c2 -31 7 -39 26 -41 29 -4 26 -33 -6 -47 -42 -19 -44 -95
-2 -105 14 -3 25 -12 25 -20 0 -17 -41 -40 -72 -40 -42 0 -63 34 -63 99 0 43
-4 60 -15 65 -22 8 27 97 63 113 39 17 40 17 44 -24z m-3193 -49 c18 -15 31
-35 31 -49 0 -30 -44 -65 -81 -65 -48 0 -32 -19 18 -22 59 -4 70 -29 24 -52
-50 -26 -89 -20 -127 18 -28 28 -34 42 -34 76 0 52 13 76 53 100 43 27 80 25
116 -6z m573 -13 c34 -38 36 -82 8 -129 -21 -34 -72 -62 -112 -62 -38 0 -85
35 -97 73 -39 118 118 210 201 118z m728 25 c0 -48 -24 -183 -34 -194 -7 -7
-39 -15 -70 -17 -54 -4 -61 -2 -87 25 -25 24 -29 37 -29 80 0 45 4 56 33 84
30 31 36 33 110 33 52 1 77 -3 77 -11z m362 5 c16 -3 29 -75 23 -124 -10 -72
-20 -87 -57 -87 l-31 0 7 73 c4 40 4 76 0 80 -14 14 -42 -15 -48 -50 -14 -83
-18 -91 -42 -102 -40 -18 -46 -6 -42 77 2 44 -1 76 -7 78 -20 7 -36 -13 -41
-52 -3 -21 -7 -49 -10 -61 -5 -26 -61 -60 -76 -45 -12 12 8 204 23 212 8 5
276 6 301 1z m284 -42 c-3 -27 -9 -71 -12 -98 -3 -28 -11 -54 -17 -59 -7 -5
-38 -12 -70 -16 -55 -6 -60 -5 -88 23 -25 25 -29 37 -29 81 0 45 4 56 33 84
30 31 36 33 110 33 l79 1 -6 -49z m604 36 c37 -19 50 -43 50 -92 0 -74 -54
-123 -137 -123 -37 0 -84 49 -89 95 -6 49 10 82 55 112 39 27 80 29 121 8z
m306 -64 c-13 -143 -10 -139 -110 -144 -52 -2 -60 1 -82 26 -41 48 -27 143 27
180 13 10 46 15 96 15 l75 0 -6 -77z m158 73 c9 -4 16 -18 16 -33 0 -25 -3
-27 -32 -23 l-33 5 38 -42 c20 -22 37 -49 37 -59 0 -36 -73 -78 -117 -67 -18
4 -23 12 -23 35 0 28 2 29 32 23 l32 -6 -32 39 c-38 46 -40 76 -7 109 23 24
57 31 89 19z"/>
<path d="M3630 2135 c-18 -22 -19 -143 0 -156 9 -6 59 -9 117 -7 124 4 135 11
137 90 2 83 -6 88 -134 88 -82 0 -110 -3 -120 -15z"/>
<path d="M3082 2171 c-18 -11 -6 -170 13 -177 7 -3 37 1 66 8 42 10 57 19 67
40 16 34 1 103 -26 117 -27 13 -106 22 -120 12z"/>
<path d="M4246 1628 c-13 -41 -13 -58 -1 -58 18 0 37 26 33 46 -4 22 -27 30
-32 12z"/>
<path d="M5506 1544 c-9 -22 -8 -24 9 -24 8 0 15 9 15 20 0 24 -15 27 -24 4z"/>
<path d="M5795 1599 c-4 -17 -4 -33 -1 -36 11 -11 36 19 36 43 0 35 -27 30
-35 -7z"/>
<path d="M1950 1555 c-8 -9 -8 -15 -2 -15 18 0 42 12 42 21 0 14 -26 10 -40
-6z"/>
<path d="M2484 1545 c-20 -31 -12 -71 18 -81 41 -13 66 57 32 90 -21 22 -31
20 -50 -9z"/>
<path d="M3196 1548 c-14 -55 1 -101 27 -80 17 14 29 65 21 87 -9 23 -41 18
-48 -7z"/>
<path d="M3846 1554 c-18 -47 7 -112 31 -82 17 21 25 56 18 78 -8 24 -40 27
-49 4z"/>
<path d="M4501 1557 c-20 -25 -24 -72 -7 -86 20 -17 43 -8 58 23 9 20 8 30 -6
51 -19 28 -29 31 -45 12z"/>
<path d="M4760 1544 c-14 -36 -12 -60 5 -74 19 -16 32 -6 40 30 13 61 -25 98
-45 44z"/>
</g>
</svg>
